<?xml version="1.0" encoding="utf-8"?>
<!-- Generator: Adobe Illustrator 28.3.0, SVG Export Plug-In . SVG Version: 6.00 Build 0)  -->
<svg version="1.1" id="Layer_1" xmlns="http://www.w3.org/2000/svg" xmlns:xlink="http://www.w3.org/1999/xlink" x="0px" y="0px"
	 viewBox="0 0 50 50" style="enable-background:new 0 0 50 50;" xml:space="preserve">
<style type="text/css">
	.st0{fill:#01015B;}
	.st1{fill:#9898FD;}
</style>
<g>
	<path class="st0" d="M44.7,12c0,8.7,0,17.3,0,26c-0.1,0.1-0.1,0.2-0.1,0.3c-0.7,3.4-3.4,5.6-6.8,5.6c-8.4,0-16.7,0-25.1,0
		c-3.9,0-6.9-3.1-6.9-7c0-8,0-16,0-23.9c0-0.5,0-0.9,0.1-1.4C6.5,8.3,9.3,6,12.7,5.9c8.4,0,16.7,0,25.1,0c3.3,0,6,2.2,6.7,5.3
		C44.6,11.5,44.5,11.8,44.7,12z M24.6,32.7c0.5,0,1,0,1.5,0c0.4,0,0.4,0,0.3-0.4c-0.4-1.1-0.8-2.2-1.2-3.3
		c-1.5-4.3-3.1-8.6-4.6-12.9c-0.1-0.2-0.2-0.4-0.5-0.4c-1.3,0-2.6,0-3.8,0c-0.2,0-0.3,0.1-0.3,0.3c0,0.5-0.1,1.1-0.3,1.6
		c-1.7,4.9-3.4,9.7-5.1,14.6c-0.2,0.5-0.2,0.5,0.4,0.5c0.9,0,1.7,0,2.6,0c0.3,0,0.5-0.1,0.5-0.4c0.3-1.1,0.7-2.2,1.1-3.3
		c0.1-0.2,0.2-0.3,0.4-0.3c1.8,0,3.6,0,5.4,0c0.2,0,0.3,0.1,0.4,0.3c0.4,1.1,0.8,2.2,1.1,3.3c0.1,0.3,0.3,0.4,0.6,0.4
		C23.7,32.7,24.2,32.7,24.6,32.7z M34.9,27.2c1.1-0.1,2.5,0.1,3.8,0c0.2,0,0.4-0.1,0.4-0.3c0.1-0.9,0.2-1.8,0-2.7
		c-0.4-2.1-1.4-3.6-3.5-4.3c-0.8-0.2-1.6-0.3-2.4-0.2c-1.8,0.1-3.4,0.9-4.4,2.4c-1.2,1.7-1.5,3.7-1.2,5.8c0.1,0.9,0.4,1.7,0.9,2.5
		c0.8,1.3,1.9,2.1,3.4,2.5c2,0.5,4,0.4,5.9-0.3c0.3-0.1,0.4-0.3,0.4-0.6c0-0.7,0-1.4,0-2.1c0-0.3-0.1-0.4-0.4-0.3
		c-1.2,0.4-2.4,0.6-3.7,0.4c-1.6-0.2-2.6-1.1-2.9-2.5c-0.1-0.3,0-0.3,0.3-0.3C32.4,27.2,33.6,27.2,34.9,27.2z"/>
	<path class="st1" d="M24.6,32.7c-0.5,0-0.9,0-1.4,0c-0.3,0-0.5-0.1-0.6-0.4c-0.4-1.1-0.8-2.2-1.1-3.3c-0.1-0.2-0.2-0.3-0.4-0.3
		c-1.8,0-3.6,0-5.4,0c-0.3,0-0.4,0.1-0.4,0.3c-0.3,1.1-0.7,2.2-1.1,3.3c-0.1,0.3-0.2,0.4-0.5,0.4c-0.9,0-1.7,0-2.6,0
		c-0.5,0-0.5,0-0.4-0.5c1.7-4.9,3.4-9.7,5.1-14.6c0.2-0.5,0.3-1,0.3-1.6c0-0.3,0.1-0.3,0.3-0.3c1.3,0,2.6,0,3.8,0
		c0.3,0,0.4,0.2,0.5,0.4c1.5,4.3,3.1,8.6,4.6,12.9c0.4,1.1,0.8,2.2,1.2,3.3c0.1,0.4,0.1,0.4-0.3,0.4C25.7,32.7,25.1,32.7,24.6,32.7z
		 M18.3,18.6c-0.7,2.3-1.3,4.4-2,6.5c-0.1,0.3,0,0.3,0.2,0.3c1.2,0,2.3,0,3.5,0c0.3,0,0.3-0.1,0.2-0.3c-0.4-1.4-0.8-2.7-1.3-4.1
		C18.8,20.3,18.6,19.5,18.3,18.6z"/>
	<path class="st1" d="M34.9,27.2c-1.3,0-2.4,0-3.5,0c-0.3,0-0.3,0-0.3,0.3c0.3,1.4,1.3,2.3,2.9,2.5c1.3,0.1,2.5-0.1,3.7-0.4
		c0.3-0.1,0.4,0,0.4,0.3c0,0.7,0,1.4,0,2.1c0,0.3-0.1,0.5-0.4,0.6c-1.9,0.7-3.9,0.8-5.9,0.3c-1.5-0.4-2.6-1.2-3.4-2.5
		c-0.5-0.8-0.7-1.6-0.9-2.5c-0.3-2.1,0-4,1.2-5.8c1.1-1.5,2.6-2.3,4.4-2.4c0.8-0.1,1.6,0,2.4,0.2c2.1,0.7,3.1,2.2,3.5,4.3
		c0.2,0.9,0.1,1.8,0,2.7c0,0.3-0.2,0.3-0.4,0.3C37.3,27.3,36,27.1,34.9,27.2z M33.3,24.8L33.3,24.8c0.7,0,1.3,0,2,0
		c0.4,0,0.5-0.1,0.5-0.6c-0.2-0.9-0.7-1.5-1.5-1.7c-1.6-0.5-3,0.5-3.3,2.1c0,0.2,0.1,0.2,0.2,0.2C31.9,24.8,32.6,24.8,33.3,24.8z"/>
	<path class="st0" d="M18.3,18.6c0.3,0.9,0.5,1.6,0.7,2.4c0.4,1.4,0.8,2.7,1.3,4.1c0.1,0.2,0,0.3-0.2,0.3c-1.2,0-2.3,0-3.5,0
		c-0.2,0-0.3,0-0.2-0.3C17,23,17.7,20.9,18.3,18.6z"/>
	<path class="st0" d="M33.3,24.8c-0.7,0-1.3,0-2,0c-0.2,0-0.3,0-0.2-0.2c0.2-1.6,1.6-2.5,3.1-2.1c0.9,0.3,1.4,0.9,1.5,1.7
		c0.1,0.4,0,0.5-0.5,0.6C34.6,24.8,33.9,24.8,33.3,24.8L33.3,24.8z"/>
</g>
</svg>
