<?xml version="1.0" encoding="utf-8"?>
<!-- Generator: Adobe Illustrator 28.3.0, SVG Export Plug-In . SVG Version: 6.00 Build 0)  -->
<svg version="1.1" id="Layer_1" xmlns="http://www.w3.org/2000/svg" xmlns:xlink="http://www.w3.org/1999/xlink" x="0px" y="0px"
	 viewBox="0 0 50 50" style="enable-background:new 0 0 50 50;" xml:space="preserve">
<style type="text/css">
	.st0{fill:#390100;}
	.st1{fill:#FD9900;}
</style>
<g>
	<path class="st0" d="M5.5,38c0-8.7,0-17.3,0-26c0.1-0.1,0.1-0.2,0.1-0.3C6.3,8.3,9,6,12.5,6c8.4,0,16.7,0,25.1,0
		c3.9,0,6.9,3.1,6.9,7c0,8,0,16,0,24c0,0.4,0,0.9-0.1,1.3C43.7,41.7,41,44,37.5,44c-8.4,0-16.7,0-25.1,0c-3.3,0-6-2.2-6.7-5.3
		C5.7,38.4,5.7,38.2,5.5,38z M27.7,32.8c0.5,0,0.9,0,1.4,0c0.6,0,0.6,0,0.4-0.6c-0.7-2-1.4-3.9-2.1-5.9c-1.2-3.4-2.4-6.9-3.6-10.3
		c-0.1-0.2-0.2-0.4-0.5-0.4c-1.3,0-2.6,0-3.8,0c-0.2,0-0.4,0.1-0.3,0.3c0,0.6-0.1,1.1-0.3,1.7c-0.9,2.6-1.8,5.1-2.7,7.7
		c-0.8,2.3-1.6,4.6-2.4,6.8c-0.2,0.5-0.2,0.6,0.4,0.6c0.8,0,1.6,0,2.5,0c0.4,0,0.6-0.1,0.7-0.5c0.3-1.1,0.7-2.1,1-3.1
		c0.1-0.3,0.2-0.4,0.5-0.4c1.8,0,3.5,0,5.3,0c0.3,0,0.4,0.1,0.5,0.4c0.4,1.1,0.8,2.2,1.1,3.3c0.1,0.2,0.2,0.3,0.5,0.3
		C26.6,32.8,27.2,32.8,27.7,32.8z M34.9,26.3c0-2,0-4,0-6c0-0.3-0.1-0.4-0.4-0.4c-0.9,0-1.9,0-2.8,0c-0.3,0-0.4,0.1-0.4,0.4
		c0,4,0,8.1,0,12.1c0,0.3,0.1,0.4,0.4,0.4c0.9,0,1.8,0,2.7,0c0.4,0,0.5-0.1,0.5-0.5C34.9,30.4,34.9,28.3,34.9,26.3z M35.1,16.5
		c0-1.2-0.8-2-2-2s-2.1,0.9-2.1,2c0,1.2,0.8,2.1,2,2.1C34.3,18.5,35.1,17.7,35.1,16.5z"/>
	<path class="st1" d="M27.7,32.8c-0.5,0-1,0-1.5,0c-0.3,0-0.4-0.1-0.5-0.3c-0.4-1.1-0.8-2.2-1.1-3.3c-0.1-0.3-0.2-0.4-0.5-0.4
		c-1.8,0-3.5,0-5.3,0c-0.3,0-0.4,0.1-0.5,0.4c-0.3,1.1-0.7,2.1-1,3.1c-0.1,0.4-0.3,0.5-0.7,0.5c-0.8,0-1.6,0-2.5,0
		c-0.5,0-0.6,0-0.4-0.6c0.8-2.3,1.6-4.6,2.4-6.8c0.9-2.6,1.8-5.1,2.7-7.7c0.2-0.5,0.3-1.1,0.3-1.7c0-0.3,0.1-0.3,0.3-0.3
		c1.3,0,2.6,0,3.8,0c0.3,0,0.4,0.2,0.5,0.4c1.2,3.4,2.4,6.9,3.6,10.3c0.7,2,1.4,3.9,2.1,5.9c0.2,0.6,0.2,0.6-0.4,0.6
		C28.6,32.8,28.1,32.8,27.7,32.8z M21.4,18.9C21.4,18.9,21.3,18.9,21.4,18.9c-0.7,2.1-1.4,4.3-2,6.4c-0.1,0.2,0,0.2,0.2,0.2
		c1.2,0,2.4,0,3.6,0c0.2,0,0.3,0,0.2-0.3c-0.2-0.7-0.4-1.4-0.6-2.1C22.3,21.7,21.8,20.3,21.4,18.9z"/>
	<path class="st1" d="M34.9,26.3c0,2,0,4,0,6c0,0.4-0.1,0.5-0.5,0.5c-0.9,0-1.8,0-2.7,0c-0.3,0-0.4-0.1-0.4-0.4c0-4,0-8.1,0-12.1
		c0-0.3,0.1-0.4,0.4-0.4c0.9,0,1.9,0,2.8,0c0.3,0,0.4,0.1,0.4,0.4C34.9,22.3,34.9,24.3,34.9,26.3z"/>
	<path class="st1" d="M35.1,16.5c0,1.2-0.8,2.1-2,2.1s-2-0.8-2-2.1c0-1.2,0.9-2,2.1-2C34.3,14.4,35.1,15.3,35.1,16.5z"/>
	<path class="st0" d="M21.4,18.9c0.4,1.4,0.9,2.9,1.3,4.3c0.2,0.7,0.4,1.4,0.6,2.1c0.1,0.2,0,0.3-0.2,0.3c-1.2,0-2.4,0-3.6,0
		c-0.2,0-0.2,0-0.2-0.2C20,23.2,20.7,21,21.4,18.9C21.3,18.9,21.4,18.9,21.4,18.9z"/>
</g>
</svg>
