<?xml version="1.0" encoding="utf-8"?>
<!-- Generator: Adobe Illustrator 28.3.0, SVG Export Plug-In . SVG Version: 6.00 Build 0)  -->
<svg version="1.1" id="Layer_1" xmlns="http://www.w3.org/2000/svg" xmlns:xlink="http://www.w3.org/1999/xlink" x="0px" y="0px"
	 viewBox="0 0 50 50" style="enable-background:new 0 0 50 50;" xml:space="preserve">
<style type="text/css">
	.st0{fill:#01015B;}
	.st1{fill:#9898FD;}
</style>
<g>
	<path class="st0" d="M44.5,12.1c0,8.7,0,17.3,0,26c-0.1,0.1-0.1,0.2-0.1,0.3c-0.7,3.4-3.4,5.6-7,5.6c-8.3,0-16.5,0-24.8,0
		c-0.4,0-0.8,0-1.2-0.1C8,43.4,5.5,40.5,5.5,37c0-8,0-16,0-23.9c0-3.9,3-7,6.9-7c8.4,0,16.7,0,25.1,0c3.3,0,6,2.2,6.7,5.3
		C44.3,11.6,44.3,11.8,44.5,12.1z M14.8,24.3c0,2.7,0,5.4,0,8.1c0,0.4,0.1,0.5,0.5,0.5c0.9,0,1.7,0,2.6,0c0.4,0,0.5-0.1,0.5-0.5
		c0-1.5,0-3,0-4.5c0-0.5-0.1-0.5,0.5-0.5c1.3,0,2.6,0,3.9-0.3c2.5-0.6,4.1-2.5,4.3-5.2c0.2-2.4-0.9-4.5-3.4-5.6
		c-1.2-0.5-2.5-0.6-3.8-0.6c-1.5,0-3,0.1-4.5,0.1c-0.4,0-0.5,0.1-0.5,0.5C14.8,18.9,14.8,21.6,14.8,24.3z M32.7,21.5
		c0-0.4-0.1-0.8-0.2-1.2c-0.1-0.3-0.2-0.4-0.6-0.4c-0.8,0-1.6,0-2.5,0c-0.3,0-0.4,0.1-0.3,0.4c0,0.8,0.1,1.7,0.1,2.5
		c0,3.2,0,6.4,0,9.6c0,0.4,0.1,0.5,0.5,0.5c0.9,0,1.8,0,2.7,0c0.4,0,0.5-0.1,0.5-0.5c0-2.5,0-5,0-7.4c0-0.5,0.2-0.8,0.6-1
		c0.1-0.1,0.2-0.1,0.3-0.2c0.9-0.4,1.9-0.6,2.8-0.5c0.3,0,0.4-0.1,0.4-0.4c0-0.9,0-1.8,0-2.8c0-0.3-0.1-0.4-0.4-0.4
		c-1.4,0.1-2.6,0.7-3.7,1.6C33,21.3,32.9,21.5,32.7,21.5z"/>
	<path class="st1" d="M14.8,24.3c0-2.7,0-5.4,0-8.1c0-0.4,0.1-0.5,0.5-0.5c1.5,0,3-0.1,4.5-0.1c1.3,0,2.6,0.1,3.8,0.6
		c2.5,1.1,3.6,3.2,3.4,5.6c-0.2,2.7-1.8,4.6-4.3,5.2c-1.3,0.3-2.6,0.3-3.9,0.3c-0.6,0-0.5,0-0.5,0.5c0,1.5,0,3,0,4.5
		c0,0.3-0.1,0.5-0.5,0.5c-0.9,0-1.7,0-2.6,0c-0.4,0-0.5-0.1-0.5-0.5C14.8,29.7,14.8,27,14.8,24.3z M18.3,21.6c0,0.8,0,1.6,0,2.5
		c0,0.2,0,0.3,0.3,0.3c1,0,2.1,0,3.1-0.3c1.2-0.4,1.9-1.3,1.8-2.6c0-1.2-0.7-2.1-1.9-2.5c-1-0.3-2.1-0.2-3.1-0.2
		c-0.2,0-0.2,0.1-0.2,0.3C18.3,20,18.3,20.8,18.3,21.6z"/>
	<path class="st1" d="M32.7,21.5c0.2-0.1,0.3-0.2,0.4-0.3c1-1,2.2-1.6,3.7-1.6c0.3,0,0.4,0.1,0.4,0.4c0,0.9,0,1.8,0,2.8
		c0,0.3-0.1,0.4-0.4,0.4c-1,0-1.9,0.2-2.8,0.5c-0.1,0-0.2,0.1-0.3,0.2c-0.4,0.2-0.6,0.5-0.6,1c0,2.5,0,5,0,7.4
		c0,0.4-0.1,0.5-0.5,0.5c-0.9,0-1.8,0-2.7,0c-0.4,0-0.5-0.1-0.5-0.5c0-3.2,0-6.4,0-9.6c0-0.8,0-1.7-0.1-2.5c0-0.3,0-0.4,0.3-0.4
		c0.8,0,1.6,0,2.5,0c0.3,0,0.5,0.1,0.6,0.4C32.6,20.7,32.7,21.1,32.7,21.5z"/>
	<path class="st0" d="M18.3,21.6c0-0.8,0-1.6,0-2.4c0-0.1,0-0.3,0.2-0.3c1,0,2.1-0.1,3.1,0.2c1.2,0.4,1.9,1.2,1.9,2.5
		s-0.7,2.2-1.8,2.6c-1,0.3-2,0.3-3.1,0.3c-0.2,0-0.3-0.1-0.3-0.3C18.3,23.2,18.3,22.4,18.3,21.6z"/>
</g>
</svg>
