<?xml version="1.0" encoding="utf-8"?>
<!-- Generator: Adobe Illustrator 28.3.0, SVG Export Plug-In . SVG Version: 6.00 Build 0)  -->
<svg version="1.1" id="Layer_1" xmlns="http://www.w3.org/2000/svg" xmlns:xlink="http://www.w3.org/1999/xlink" x="0px" y="0px"
	 viewBox="0 0 50 50" style="enable-background:new 0 0 50 50;" xml:space="preserve">
<style type="text/css">
	.st0{fill:#001834;}
	.st1{fill:#00A7FD;}
</style>
<g>
	<path class="st0" d="M44.7,12.1c0,8.7,0,17.3,0,26c-0.1,0.1-0.1,0.2-0.1,0.3c-0.7,3.4-3.4,5.6-6.9,5.6c-8.3,0-16.5,0-24.8,0
		c-0.4,0-0.8,0-1.2-0.1c-3.5-0.6-5.9-3.4-5.9-6.9c0-8,0-16,0-23.9c0-3.9,3-7,6.9-7C21,6,29.4,6,37.8,6c3.3,0,6,2.2,6.7,5.3
		C44.6,11.6,44.5,11.8,44.7,12.1z M14.5,24.3c0,2.7,0,5.4,0,8.1c0,0.5,0,0.5,0.5,0.5c0.8,0,1.7,0,2.5,0c0.4,0,0.5-0.1,0.5-0.5
		c0-1.5,0-3,0-4.6c0-0.3,0.1-0.4,0.4-0.4c1.1,0,2.2,0,3.3-0.1c2.9-0.5,5.1-2.4,5-5.8c0-2.5-1.4-4.5-3.8-5.3
		c-1.1-0.4-2.2-0.5-3.3-0.5c-1.5,0-3.1,0.1-4.6,0.1c-0.6,0-0.6,0-0.6,0.6C14.5,19,14.5,21.6,14.5,24.3z M28.5,30.7
		c0,0.4,0,0.8,0,1.2c0,0.3,0.1,0.5,0.4,0.6c1,0.4,2,0.6,3.1,0.6c1.3,0.1,2.6,0,3.8-0.6c1.3-0.7,2-1.7,2.1-3.2
		c0.1-1.5-0.5-2.7-1.9-3.4c-0.7-0.4-1.4-0.7-2.1-1c-0.6-0.2-1.2-0.5-1.7-0.8c-0.2-0.2-0.4-0.4-0.3-0.8c0.1-0.3,0.3-0.5,0.6-0.6
		c0.1,0,0.3-0.1,0.4-0.1c1.3-0.1,2.6,0.1,3.8,0.7c0.4,0.2,0.5,0.1,0.5-0.3c0-0.7,0-1.5,0-2.2c0-0.3-0.1-0.5-0.4-0.6
		c-0.8-0.3-1.7-0.4-2.6-0.4c-1.3-0.1-2.6,0.1-3.7,0.7c-2.4,1.3-2.8,4.8-0.2,6.5c0.8,0.5,1.6,0.9,2.5,1.2c0.5,0.2,1,0.4,1.4,0.7
		c0.5,0.4,0.4,1.1-0.3,1.3c-0.3,0.1-0.7,0.2-1,0.2c-1.4,0-2.7-0.3-3.9-0.9c-0.4-0.2-0.4-0.2-0.4,0.3C28.5,30,28.5,30.4,28.5,30.7z"
		/>
	<path class="st1" d="M14.5,24.3c0-2.6,0-5.3,0-7.9c0-0.6,0-0.6,0.6-0.6c1.5,0,3.1-0.1,4.6-0.1c1.1,0,2.2,0.1,3.3,0.5
		c2.4,0.8,3.8,2.8,3.8,5.3c0,3.4-2.1,5.3-5,5.8c-1.1,0.2-2.2,0.2-3.3,0.1c-0.3,0-0.4,0.1-0.4,0.4c0,1.5,0,3,0,4.6
		c0,0.4-0.1,0.5-0.5,0.5c-0.8,0-1.7,0-2.5,0c-0.5,0-0.5,0-0.5-0.5C14.5,29.6,14.5,27,14.5,24.3z M18.1,21.6c0,0.8,0,1.6,0,2.4
		c0,0.2,0,0.3,0.2,0.3c1,0,2,0.1,2.9-0.2c0.9-0.3,1.6-0.7,1.9-1.7c0.4-1.4,0-3.1-2.1-3.5c-0.9-0.2-1.8-0.1-2.8-0.1
		c-0.2,0-0.2,0.1-0.2,0.3C18.1,20,18.1,20.8,18.1,21.6z"/>
	<path class="st1" d="M28.5,30.7c0-0.4,0-0.8,0-1.2c0-0.4,0-0.5,0.4-0.3c1.2,0.7,2.6,0.9,3.9,0.9c0.3,0,0.7-0.1,1-0.2
		c0.6-0.2,0.7-0.8,0.3-1.3c-0.4-0.4-0.9-0.5-1.4-0.7c-0.8-0.3-1.7-0.7-2.5-1.2c-2.6-1.7-2.2-5.2,0.2-6.5c1.2-0.6,2.4-0.8,3.7-0.7
		c0.9,0,1.8,0.1,2.6,0.4c0.3,0.1,0.4,0.3,0.4,0.6c0,0.7,0,1.5,0,2.2c0,0.5-0.1,0.5-0.5,0.3c-1.2-0.6-2.5-0.7-3.8-0.7
		c-0.1,0-0.3,0-0.4,0.1c-0.3,0.1-0.6,0.3-0.6,0.6c-0.1,0.3,0.1,0.6,0.3,0.8c0.5,0.4,1.1,0.6,1.7,0.8c0.7,0.3,1.4,0.6,2.1,1
		c1.3,0.8,2,1.9,1.9,3.4c-0.1,1.5-0.8,2.5-2.1,3.2c-1.2,0.6-2.5,0.7-3.8,0.6c-1.1-0.1-2.1-0.2-3.1-0.6c-0.3-0.1-0.4-0.3-0.4-0.6
		C28.5,31.6,28.5,31.2,28.5,30.7z"/>
	<path class="st0" d="M18.1,21.6c0-0.8,0-1.6,0-2.4c0-0.2,0-0.3,0.2-0.3c0.9,0,1.8-0.1,2.8,0.1c2.1,0.4,2.5,2.2,2.1,3.5
		c-0.3,1-1,1.4-1.9,1.7c-0.9,0.3-1.9,0.2-2.9,0.2c-0.2,0-0.2-0.2-0.2-0.3C18.1,23.2,18.1,22.4,18.1,21.6z"/>
</g>
</svg>
