<?xml version="1.0" encoding="utf-8"?>
<!-- Generator: Adobe Illustrator 28.3.0, SVG Export Plug-In . SVG Version: 6.00 Build 0)  -->
<svg version="1.1" id="Layer_1" xmlns="http://www.w3.org/2000/svg" xmlns:xlink="http://www.w3.org/1999/xlink" x="0px" y="0px"
	 viewBox="0 0 50 50" style="enable-background:new 0 0 50 50;" xml:space="preserve">
<style type="text/css">
	.st0{fill:#231F20;}
</style>
<g>
	<path class="st0" d="M44.56,19.35c-0.18,0.76-0.53,1.41-1.27,1.76c-0.87,0.41-1.69,0.34-2.47-0.26c-0.12-0.09-0.22-0.18-0.31-0.27
		c-3.69-3.69-7.4-7.39-11.09-11.09c-0.87-0.87-1.03-1.91-0.49-2.88c0.27-0.49,0.68-0.84,1.23-1.03c0.12-0.04,0.23-0.09,0.35-0.14
		c0.26,0,0.5,0,0.76,0c0.7,0.15,1.21,0.59,1.7,1.1c0.84,0.87,1.7,1.72,2.56,2.57c0.08,0.08,0.17,0.14,0.26,0.22
		c0.8-0.8,1.56-1.58,2.34-2.34c0.54-0.54,1.21-0.54,1.76,0c1.05,1.03,2.09,2.08,3.14,3.12c0.53,0.54,0.53,1.19,0,1.72
		c-0.7,0.71-1.41,1.41-2.1,2.1c-0.09,0.09-0.17,0.18-0.26,0.28c0.94,0.94,1.85,1.86,2.78,2.76c0.53,0.52,0.99,1.06,1.14,1.81
		C44.56,18.99,44.56,19.17,44.56,19.35z"/>
	<path class="st0" d="M14.26,40.64c-0.76,0.76-1.5,1.5-2.22,2.22c-0.75,0.75-1.32,0.75-2.05,0.01c-0.63-0.63-1.25-1.27-1.9-1.89
		c-2.03-1.95-2-2,0.01-3.94c0.43-0.4,0.84-0.81,1.29-1.25c-0.56-0.54-1.06-1.03-1.56-1.54c-0.61-0.61-1.23-1.19-1.79-1.82
		c-1.15-1.3-0.52-3.29,1.16-3.72c0.88-0.22,1.63,0.05,2.26,0.68c0.79,0.79,1.59,1.59,2.38,2.38c2.91,2.91,5.81,5.81,8.72,8.72
		c0.85,0.85,1.05,1.86,0.56,2.81c-0.67,1.3-2.38,1.68-3.47,0.71c-0.9-0.8-1.73-1.69-2.58-2.54C14.81,41.21,14.55,40.95,14.26,40.64z
		"/>
	<path class="st0" d="M41.29,25.56c-0.03,0.94-0.45,1.67-1.32,2.07c-0.84,0.39-1.65,0.28-2.4-0.3c-0.13-0.1-0.25-0.22-0.36-0.34
		c-4.74-4.74-9.49-9.48-14.23-14.23c-0.9-0.9-1.08-1.95-0.53-2.94c0.66-1.18,2.26-1.51,3.33-0.68c0.15,0.13,0.31,0.26,0.45,0.4
		c4.74,4.73,9.46,9.46,14.2,14.19C40.96,24.26,41.31,24.82,41.29,25.56z"/>
	<path class="st0" d="M8.72,24.42c0.04-0.94,0.46-1.67,1.33-2.05c0.83-0.39,1.64-0.27,2.36,0.28c0.13,0.1,0.26,0.22,0.37,0.34
		c4.75,4.75,9.5,9.5,14.26,14.26c0.9,0.9,1.08,1.95,0.52,2.94c-0.67,1.18-2.27,1.5-3.34,0.67c-0.15-0.12-0.3-0.25-0.43-0.37
		c-4.74-4.74-9.48-9.48-14.23-14.22C9.05,25.74,8.7,25.17,8.72,24.42z"/>
	<path class="st0" d="M26.11,19.19c1.55,1.55,3.15,3.15,4.74,4.74c-2.3,2.27-4.62,4.57-6.91,6.84c-1.54-1.54-3.14-3.14-4.74-4.74
		C21.47,23.79,23.79,21.49,26.11,19.19z"/>
</g>
</svg>
