<?xml version="1.0" encoding="utf-8"?>
<!-- Generator: Adobe Illustrator 28.3.0, SVG Export Plug-In . SVG Version: 6.00 Build 0)  -->
<svg version="1.1" id="Layer_1" xmlns="http://www.w3.org/2000/svg" xmlns:xlink="http://www.w3.org/1999/xlink" x="0px" y="0px"
	 viewBox="0 0 50 50" style="enable-background:new 0 0 50 50;" xml:space="preserve">
<style type="text/css">
	.st0{fill-rule:evenodd;clip-rule:evenodd;fill:#58595B;}
	.st1{fill-rule:evenodd;clip-rule:evenodd;fill:#9C9C9D;}
	.st2{fill-rule:evenodd;clip-rule:evenodd;fill:#8C8B8B;}
	.st3{fill:#58595B;}
	.st4{fill:#262526;}
	.st5{font-family:'Garamond';}
	.st6{font-size:12px;}
</style>
<path class="st0" d="M-79.67,17.85l-4.2-1.68v-3.37l4.2-1.68c0.46,0,0.84,0.38,0.84,0.84v5.05C-78.83,17.48-79.21,17.85-79.67,17.85
	z M-87.65,11.97c-2.09,0-3.78-1.69-3.78-3.79c0-2.09,1.69-3.78,3.78-3.78c2.09,0,3.78,1.69,3.78,3.78
	C-83.87,10.27-85.56,11.97-87.65,11.97z M-95.2,11.97c-2.09,0-3.78-1.69-3.78-3.79c0-2.09,1.69-3.78,3.78-3.78
	c2.09,0,3.78,1.69,3.78,3.78C-91.43,10.27-93.12,11.97-95.2,11.97z M-84.71,11.97v7.57h-4.69c-0.04,0.7-0.35,1.3-0.8,1.64h0.47
	l3.35,7.55h-0.84l-1.12-2.52h-2.23v4.2h-0.84v-4.2h-2.27l-1.13,2.52h-0.84l3.4-7.55h0.32c-0.45-0.34-0.76-0.94-0.8-1.64h-5.42v-7.57
	h2.94h7.56H-84.71z M-91.4,21.44c-0.04-0.01-0.07-0.03-0.1-0.04l-1.79,3.97h1.89V21.44z M-90.56,21.38v4h1.86l-1.78-4.02
	C-90.51,21.36-90.54,21.37-90.56,21.38z"/>
<g>
	<g>
		<g>
			<polygon class="st1" points="100.21,21.26 89.35,28.69 100.21,36.13 111.06,28.69 			"/>
		</g>
	</g>
	<polygon class="st2" points="111.97,16.35 101.11,8.91 101.21,20.29 111.97,27.65 	"/>
	<polygon class="st0" points="88.44,16.35 99.3,8.91 99.21,20.29 88.35,27.72 	"/>
	<rect x="81.05" y="26.6" style="fill:none;" width="9.98" height="7.71"/>
	<text transform="matrix(1 0 0 1 83.9045 33.1816)" class="st4 st5" style="font-size:10px;">z</text>
	<rect x="110.41" y="26.52" style="fill:none;" width="8.38" height="7.71"/>
	<text transform="matrix(1 0 0 1 112.3026 33.1079)" class="st4 st5" style="font-size:10px;">x</text>
	<rect x="96.72" y="-1.32" style="fill:none;" width="8.38" height="7.71"/>
	<text transform="matrix(1 0 0 1 98.8221 5.2607)" class="st4 st5" style="font-size:10px;">y</text>
</g>
<g>
	<path class="st3" d="M-51.18,30.48c0.81-0.81,1.63-1.62,2.44-2.43c0.07-0.07,0.11-0.19,0.14-0.29c0.34-1.02,0.72-2.03,1.01-3.06
		c0.17-0.59,0.6-0.92,0.95-1.29c1.29,1.28,2.55,2.54,3.82,3.8c-0.39,0.45-0.82,0.84-1.45,1.02c-0.97,0.27-1.91,0.62-2.86,0.95
		c-0.17,0.06-0.34,0.17-0.47,0.3c-0.78,0.75-1.55,1.51-2.34,2.28c-0.4-0.39-0.82-0.8-1.25-1.21C-51.18,30.52-51.18,30.5-51.18,30.48
		z"/>
	<path class="st3" d="M-37.68,11.96c1.74-1.74,3.42-3.43,5.13-5.14c0.38,0.4,0.78,0.82,1.16,1.22c0.45-0.44,0.86-0.86,1.28-1.28
		c-0.81-0.81-1.64-1.64-2.45-2.45c0.44-0.44,0.85-0.85,1.27-1.27c0.79,0.79,1.63,1.63,2.48,2.49c0.45-0.46,0.86-0.88,1.25-1.27
		c0.45,0.45,0.87,0.87,1.31,1.31c-0.4,0.38-0.83,0.78-1.27,1.19c0.12,0.12,0.19,0.2,0.26,0.28c1.82,1.82,3.64,3.64,5.46,5.46
		c0.92,0.92,1.38,2.04,1.35,3.35c-0.03,1.14-0.43,2.13-1.23,2.95c-1.31,1.35-2.64,2.68-3.99,3.99c-1.73,1.67-4.44,1.68-6.19,0.03
		c-0.68-0.64-1.31-1.32-1.96-1.99c-2.13,2.15-4.24,4.28-6.32,6.38c-2.18-2.18-4.29-4.29-6.4-6.4c2.09-2.07,4.21-4.17,6.36-6.3
		c-0.71-0.69-1.35-1.31-1.97-1.92c0.45-0.45,0.87-0.87,1.28-1.28c1.03,1.04,2.08,2.08,3.1,3.11c0.44-0.45,0.86-0.86,1.27-1.28
		C-36.87,12.76-37.28,12.36-37.68,11.96z M-32.55,17.06c1.72-1.72,3.41-3.41,5.13-5.13c0.38,0.39,0.78,0.8,1.15,1.18
		c0.43-0.43,0.84-0.84,1.22-1.22c-1.23-1.23-2.49-2.49-3.73-3.73c-0.39,0.39-0.79,0.79-1.22,1.22c0.4,0.39,0.82,0.8,1.22,1.2
		c-1.71,1.72-3.4,3.41-5.13,5.14c-0.4-0.41-0.81-0.83-1.18-1.22c-0.43,0.43-0.85,0.85-1.24,1.24c1.23,1.23,2.49,2.49,3.71,3.71
		c0.4-0.4,0.82-0.82,1.26-1.26C-31.75,17.82-32.17,17.43-32.55,17.06z M-31.22,20.82c0.23,0.25,0.44,0.54,0.72,0.78
		c1.03,0.88,2.58,0.86,3.56-0.08c1.35-1.31,2.68-2.64,3.99-3.99c0.59-0.61,0.8-1.36,0.68-2.21c-0.13-0.93-0.75-1.51-1.35-2.07
		c-0.42,0.43-0.84,0.84-1.28,1.28c0.39,0.37,0.81,0.77,1.19,1.14c-1.71,1.71-3.4,3.4-5.13,5.13c-0.38-0.38-0.78-0.8-1.17-1.19
		C-30.43,20.02-30.84,20.43-31.22,20.82z"/>
</g>
<g>
	<text transform="matrix(1 0 0 1 5.1114 46.1375)" class="st4 st5 st6">Deporte</text>
</g>
<g>
	<text transform="matrix(1 0 0 1 -108.6277 47.6614)" class="st4 st5 st6">Películas</text>
</g>
<g>
	<text transform="matrix(1 0 0 1 -51.0651 47.6852)" class="st4 st5 st6">Tattoo</text>
</g>
<g>
	<text transform="matrix(1 0 0 1 69.2069 47.7183)" class="st4 st5 st6">Modelado 3d</text>
</g>
<g>
	<path class="st3" d="M39.86,13.02c-0.14,0.59-0.41,1.09-0.98,1.36c-0.67,0.32-1.31,0.26-1.91-0.2c-0.09-0.07-0.17-0.14-0.24-0.21
		c-2.86-2.86-5.73-5.72-8.59-8.59c-0.67-0.67-0.8-1.48-0.38-2.23c0.21-0.38,0.53-0.65,0.95-0.8c0.09-0.03,0.18-0.07,0.27-0.11
		c0.2,0,0.39,0,0.59,0c0.54,0.12,0.94,0.46,1.32,0.85c0.65,0.67,1.32,1.33,1.98,1.99c0.06,0.06,0.13,0.11,0.2,0.17
		c0.62-0.62,1.21-1.22,1.81-1.81c0.42-0.42,0.94-0.42,1.36,0c0.81,0.8,1.62,1.61,2.43,2.42c0.41,0.42,0.41,0.92,0,1.33
		c-0.54,0.55-1.09,1.09-1.63,1.63c-0.07,0.07-0.13,0.14-0.2,0.22c0.73,0.73,1.43,1.44,2.15,2.14c0.41,0.4,0.77,0.82,0.88,1.4
		C39.86,12.74,39.86,12.88,39.86,13.02z"/>
	<path class="st3" d="M16.39,29.51c-0.59,0.59-1.16,1.16-1.72,1.72c-0.58,0.58-1.02,0.58-1.59,0.01c-0.49-0.49-0.97-0.98-1.47-1.46
		c-1.57-1.51-1.55-1.55,0.01-3.05c0.33-0.31,0.65-0.63,1-0.97c-0.43-0.42-0.82-0.8-1.21-1.19c-0.47-0.47-0.95-0.92-1.39-1.41
		c-0.89-1.01-0.4-2.55,0.9-2.88c0.68-0.17,1.26,0.04,1.75,0.53c0.61,0.61,1.23,1.23,1.84,1.84c2.25,2.25,4.5,4.5,6.75,6.75
		c0.66,0.66,0.81,1.44,0.43,2.18c-0.52,1.01-1.84,1.3-2.69,0.55c-0.7-0.62-1.34-1.31-2-1.97C16.82,29.95,16.62,29.75,16.39,29.51z"
		/>
	<path class="st3" d="M37.33,17.83c-0.02,0.73-0.35,1.29-1.02,1.6c-0.65,0.3-1.28,0.22-1.86-0.23c-0.1-0.08-0.19-0.17-0.28-0.26
		c-3.67-3.67-7.35-7.34-11.02-11.02c-0.7-0.7-0.84-1.51-0.41-2.28c0.51-0.91,1.75-1.17,2.58-0.53c0.12,0.1,0.24,0.2,0.35,0.31
		c3.67,3.66,7.33,7.33,11,10.99C37.07,16.82,37.34,17.26,37.33,17.83z"/>
	<path class="st3" d="M12.1,16.95c0.03-0.73,0.36-1.29,1.03-1.59c0.64-0.3,1.27-0.21,1.83,0.22c0.1,0.08,0.2,0.17,0.29,0.26
		c3.68,3.68,7.36,7.36,11.04,11.04c0.7,0.7,0.84,1.51,0.4,2.28c-0.52,0.91-1.76,1.16-2.59,0.52c-0.12-0.09-0.23-0.19-0.33-0.29
		c-3.67-3.67-7.34-7.34-11.02-11.01C12.36,17.97,12.09,17.53,12.1,16.95z"/>
	<path class="st3" d="M25.57,12.9c1.2,1.2,2.44,2.44,3.67,3.67c-1.78,1.76-3.58,3.54-5.35,5.3c-1.19-1.19-2.43-2.43-3.67-3.67
		C21.98,16.46,23.77,14.68,25.57,12.9z"/>
</g>
</svg>
