<?xml version="1.0" encoding="utf-8"?>
<!-- Generator: Adobe Illustrator 28.3.0, SVG Export Plug-In . SVG Version: 6.00 Build 0)  -->
<svg version="1.1" xmlns="http://www.w3.org/2000/svg" xmlns:xlink="http://www.w3.org/1999/xlink" x="0px" y="0px"
	 viewBox="0 0 974.1 641.5" style="enable-background:new 0 0 974.1 641.5;" xml:space="preserve">
<style type="text/css">
	.st0{opacity:0.39;}
	.st1{fill:#FFFFFF;}
	.st2{opacity:0.54;}
</style>
<g id="Layer_2" class="st0">
	<rect y="-0.1" class="st1" width="974.1" height="641.6"/>
</g>
<g id="Layer_4">
</g>
<g id="Layer_3">
	<path class="st2" d="M871.5-143.1l-3.3-10.2l-164,54.7l-83.8,320.3l-3.6-10.8L475.3-224.4l-141,45.8L555,500.8l144.7-44.2
		l-48.8-154.2c-2.4-41,19.8-75.2,62.4-89.1c44.4-14.4,75,8.7,89.1,52.2l90.6,279l123.3-40.1L914.6,191
		C891,118.5,850,75.9,794.6,72.9l0.8-1L871.5-143.1z"/>
	<rect x="103.4" y="-31.2" width="5.4" height="361.5"/>
	<rect x="46.5" y="104.6" class="st1" width="247.1" height="102.6"/>
</g>
</svg>
