<?xml version="1.0" encoding="utf-8"?>
<!-- Generator: Adobe Illustrator 28.3.0, SVG Export Plug-In . SVG Version: 6.00 Build 0)  -->
<svg version="1.1" id="Layer_1" xmlns="http://www.w3.org/2000/svg" xmlns:xlink="http://www.w3.org/1999/xlink" x="0px" y="0px"
	 viewBox="0 0 57 57" style="enable-background:new 0 0 57 57;" xml:space="preserve">
<style type="text/css">
	.st0{fill:#FFFFFF;}
	.st1{fill-rule:evenodd;clip-rule:evenodd;fill:#231F20;}
</style>
<circle class="st0" cx="28.5" cy="28.5" r="28.5"/>
<path class="st1" d="M28.5,0.1C12.8,0.1,0,12.9,0,28.6c0,12.6,8.2,23.3,19.5,27c1.4,0.3,1.9-0.6,1.9-1.4c0-0.7,0-2.5,0-4.8
	c-7.9,1.7-9.6-3.8-9.6-3.8c-1.3-3.3-3.2-4.2-3.2-4.2c-2.6-1.8,0.2-1.7,0.2-1.7c2.9,0.2,4.4,2.9,4.4,2.9c2.5,4.4,6.7,3.1,8.3,2.4
	c0.3-1.8,1-3.1,1.8-3.8c-6.3-0.7-13-3.2-13-14.1c0-3.1,1.1-5.7,2.9-7.6c-0.3-0.7-1.3-3.6,0.3-7.5c0,0,2.4-0.8,7.8,2.9
	c2.3-0.6,4.7-1,7.1-1c2.4,0,4.8,0.3,7.1,1c5.4-3.7,7.8-2.9,7.8-2.9c1.6,3.9,0.6,6.8,0.3,7.5c1.8,2,2.9,4.5,2.9,7.6
	c0,11-6.7,13.4-13,14.1c1,0.9,1.9,2.6,1.9,5.3c0,3.8,0,6.9,0,7.8c0,0.8,0.5,1.6,2,1.4C48.8,51.9,57,41.2,57,28.6
	C57,12.9,44.2,0.1,28.5,0.1z"/>
</svg>
