<?xml version="1.0" encoding="utf-8"?>
<!-- Generator: Adobe Illustrator 28.3.0, SVG Export Plug-In . SVG Version: 6.00 Build 0)  -->
<svg version="1.1" id="Layer_1" xmlns="http://www.w3.org/2000/svg" xmlns:xlink="http://www.w3.org/1999/xlink" x="0px" y="0px"
	 viewBox="0 0 50 50" style="enable-background:new 0 0 50 50;" xml:space="preserve">
<style type="text/css">
	.st0{fill-rule:evenodd;clip-rule:evenodd;fill:#58595B;}
	.st1{fill:#262526;}
	.st2{font-family:'Garamond';}
	.st3{font-size:12px;}
</style>
<path class="st0" d="M34.3,17.85l-4.2-1.68v-3.37l4.2-1.68c0.46,0,0.84,0.38,0.84,0.84v5.05C35.14,17.48,34.76,17.85,34.3,17.85z
	 M26.32,11.97c-2.09,0-3.78-1.69-3.78-3.79c0-2.09,1.69-3.78,3.78-3.78c2.09,0,3.78,1.69,3.78,3.78
	C30.1,10.27,28.41,11.97,26.32,11.97z M18.77,11.97c-2.09,0-3.78-1.69-3.78-3.79c0-2.09,1.69-3.78,3.78-3.78
	c2.09,0,3.78,1.69,3.78,3.78C22.54,10.27,20.85,11.97,18.77,11.97z M29.26,11.97v7.57h-4.69c-0.04,0.7-0.35,1.3-0.8,1.64h0.47
	l3.35,7.55h-0.84l-1.12-2.52h-2.23v4.2h-0.84v-4.2H20.3l-1.13,2.52h-0.84l3.4-7.55h0.32c-0.45-0.34-0.76-0.94-0.8-1.64h-5.42v-7.57
	h2.94h7.56H29.26z M22.57,21.44c-0.04-0.01-0.07-0.03-0.1-0.04l-1.79,3.97h1.89V21.44z M23.41,21.38v4h1.86l-1.78-4.02
	C23.46,21.36,23.43,21.37,23.41,21.38z"/>
<g>
	<text transform="matrix(1 0 0 1 5.3419 47.6614)" class="st1 st2 st3">Películas</text>
</g>
</svg>
