<?xml version="1.0" encoding="utf-8"?>
<!-- Generator: Adobe Illustrator 28.3.0, SVG Export Plug-In . SVG Version: 6.00 Build 0)  -->
<svg version="1.1" id="Layer_1" xmlns="http://www.w3.org/2000/svg" xmlns:xlink="http://www.w3.org/1999/xlink" x="0px" y="0px"
	 viewBox="0 0 50 50" style="enable-background:new 0 0 50 50;" xml:space="preserve">
<style type="text/css">
	.st0{fill-rule:evenodd;clip-rule:evenodd;fill:#231F20;}
</style>
<path class="st0" d="M41.28,26.12l-6.99-2.8v-5.61l6.99-2.8c0.77,0,1.4,0.63,1.4,1.4v8.41C42.68,25.5,42.05,26.12,41.28,26.12z
	 M27.99,16.33c-3.48,0-6.29-2.81-6.29-6.31c0-3.48,2.81-6.29,6.29-6.29s6.29,2.81,6.29,6.29S31.48,16.33,27.99,16.33z M15.42,16.33
	c-3.48,0-6.29-2.81-6.29-6.31c0-3.48,2.81-6.29,6.29-6.29s6.29,2.81,6.29,6.29C21.7,13.5,18.89,16.33,15.42,16.33z M32.89,16.33
	v12.61h-7.81c-0.07,1.17-0.58,2.16-1.33,2.73h0.78l5.58,12.57h-1.4l-1.87-4.2h-3.71v6.99h-1.4v-6.99h-3.76l-1.88,4.2h-1.4
	l5.66-12.57h0.53c-0.75-0.57-1.27-1.57-1.33-2.73h-9.03V16.33h4.9h12.59C28.01,16.33,32.89,16.33,32.89,16.33z M21.75,32.1
	c-0.07-0.02-0.12-0.05-0.17-0.07l-2.98,6.61h3.15V32.1z M23.15,32v6.66h3.1l-2.96-6.69C23.23,31.97,23.18,31.98,23.15,32z"/>
</svg>
