<?xml version="1.0" encoding="utf-8"?>
<!-- Generator: Adobe Illustrator 28.3.0, SVG Export Plug-In . SVG Version: 6.00 Build 0)  -->
<svg version="1.1" id="Layer_1" xmlns="http://www.w3.org/2000/svg" xmlns:xlink="http://www.w3.org/1999/xlink" x="0px" y="0px"
	 viewBox="0 0 50 50" style="enable-background:new 0 0 50 50;" xml:space="preserve">
<style type="text/css">
	.st0{fill:#231F20;}
</style>
<g>
	<path class="st0" d="M3.13,43.62c1.15-1.15,2.32-2.31,3.47-3.46c0.1-0.1,0.16-0.27,0.2-0.41c0.48-1.45,1.02-2.89,1.44-4.36
		c0.24-0.84,0.85-1.31,1.35-1.84c1.84,1.82,3.63,3.62,5.44,5.41c-0.56,0.64-1.17,1.2-2.06,1.45c-1.38,0.38-2.72,0.88-4.07,1.35
		c-0.24,0.09-0.48,0.24-0.67,0.43c-1.11,1.07-2.21,2.15-3.33,3.25c-0.57-0.56-1.17-1.14-1.78-1.72C3.13,43.68,3.13,43.65,3.13,43.62
		z"/>
	<path class="st0" d="M22.35,17.26c2.48-2.48,4.87-4.88,7.3-7.32c0.54,0.57,1.11,1.17,1.65,1.74c0.64-0.63,1.22-1.22,1.82-1.82
		c-1.15-1.15-2.33-2.33-3.49-3.49c0.63-0.63,1.21-1.21,1.81-1.81c1.12,1.12,2.32,2.32,3.53,3.54c0.64-0.65,1.22-1.25,1.78-1.81
		C37.4,6.93,38,7.53,38.62,8.16c-0.57,0.54-1.18,1.11-1.81,1.69c0.17,0.17,0.27,0.28,0.37,0.4c2.59,2.59,5.18,5.18,7.77,7.77
		c1.31,1.31,1.96,2.9,1.92,4.77c-0.04,1.62-0.61,3.03-1.75,4.2c-1.86,1.92-3.76,3.82-5.68,5.68c-2.46,2.38-6.32,2.39-8.81,0.04
		c-0.97-0.91-1.86-1.88-2.79-2.83c-3.03,3.06-6.04,6.09-9,9.08c-3.1-3.1-6.11-6.11-9.11-9.11c2.98-2.95,5.99-5.94,9.05-8.97
		c-1.01-0.98-1.92-1.86-2.8-2.73c0.64-0.64,1.24-1.24,1.82-1.82c1.47,1.48,2.96,2.96,4.41,4.43c0.63-0.64,1.22-1.22,1.81-1.82
		C23.5,18.39,22.92,17.83,22.35,17.26z M29.65,24.52c2.45-2.45,4.85-4.85,7.3-7.3c0.54,0.56,1.11,1.14,1.64,1.68
		c0.61-0.61,1.2-1.2,1.74-1.74c-1.75-1.75-3.54-3.54-5.31-5.31c-0.56,0.56-1.12,1.12-1.74,1.74c0.57,0.56,1.17,1.14,1.74,1.71
		c-2.43,2.45-4.84,4.85-7.3,7.32c-0.57-0.58-1.15-1.18-1.68-1.74c-0.61,0.61-1.21,1.21-1.77,1.77c1.75,1.75,3.54,3.54,5.28,5.28
		c0.57-0.57,1.17-1.17,1.79-1.79C30.79,25.6,30.2,25.04,29.65,24.52z M31.55,29.87c0.33,0.36,0.63,0.77,1.02,1.11
		c1.47,1.25,3.67,1.22,5.07-0.11c1.92-1.86,3.82-3.76,5.68-5.68c0.84-0.87,1.14-1.94,0.97-3.15c-0.19-1.32-1.07-2.15-1.92-2.95
		c-0.6,0.61-1.2,1.2-1.82,1.82c0.56,0.53,1.15,1.1,1.69,1.62c-2.43,2.43-4.84,4.84-7.3,7.3c-0.54-0.54-1.11-1.14-1.67-1.69
		C32.67,28.73,32.09,29.31,31.55,29.87z"/>
</g>
</svg>
